<svg width="112" height="56" viewBox="0 0 112 56" fill="none" xmlns="http://www.w3.org/2000/svg">
<path d="M20.2581 17.5006H12.9609C12.4615 17.5006 12.0369 17.9238 11.959 18.4989L9.00766 40.3295C8.94898 40.7602 9.23493 41.1486 9.60945 41.1486H13.0932C13.5925 41.1486 14.0172 40.7254 14.0951 40.149L14.8911 34.2609C14.9679 33.6846 15.3936 33.2613 15.8919 33.2613H18.202C23.0088 33.2613 25.783 30.5476 26.5075 25.17C26.834 22.8172 26.5213 20.9686 25.577 19.6741C24.5399 18.2525 22.7004 17.5006 20.2581 17.5006ZM21.0999 25.4737C20.7009 28.5285 18.7003 28.5285 16.7658 28.5285H15.6646L16.4372 22.8235C16.483 22.4786 16.7391 22.2246 17.0379 22.2246H17.5426C18.8603 22.2246 20.1034 22.2246 20.7457 23.101C21.1287 23.6238 21.2461 24.4007 21.0999 25.4737Z" fill="#C5C5C5"/>
<path d="M42.0708 25.3762H38.5764C38.2787 25.3762 38.0216 25.6301 37.9757 25.9749L37.821 27.1152L37.5766 26.702C36.8201 25.421 35.1332 24.9928 33.4495 24.9928C29.588 24.9928 26.29 28.4048 25.6476 33.1912C25.3137 35.5788 25.7885 37.8618 26.9494 39.454C28.0142 40.9179 29.5379 41.5278 31.3507 41.5278C34.4621 41.5278 36.1874 39.1938 36.1874 39.1938L36.0316 40.3265C35.9729 40.7598 36.2589 41.1482 36.6313 41.1482H39.7789C40.2793 41.1482 40.7019 40.725 40.7808 40.1486L42.6694 26.1953C42.7292 25.7658 42.4443 25.3762 42.0708 25.3762ZM37.2 33.3107C36.8628 35.6398 35.2783 37.2033 33.2574 37.2033C32.2427 37.2033 31.4318 36.8236 30.9111 36.1041C30.3947 35.3896 30.1984 34.3726 30.3627 33.2397C30.6774 30.9305 32.2886 29.316 34.2786 29.316C35.2709 29.316 36.0775 29.7006 36.6089 30.4264C37.1413 31.1597 37.3526 32.1828 37.2 33.3107Z" fill="#C5C5C5"/>
<path d="M60.6817 25.3767H57.1702C56.8351 25.3767 56.5204 25.5709 56.3304 25.8958L51.4873 34.2187L49.4344 26.2207C49.3053 25.7203 48.9095 25.3767 48.4613 25.3767H45.0107C44.5913 25.3767 44.3001 25.8547 44.4334 26.3153L48.3013 39.5578L44.665 45.5467C44.379 46.0185 44.6671 46.667 45.1611 46.667H48.6683C49.0012 46.667 49.3128 46.4778 49.5017 46.1592L61.181 26.4908C61.4606 26.0203 61.1735 25.3767 60.6817 25.3767Z" fill="#C5C5C5"/>
<path d="M72.307 17.5006H65.0088C64.5105 17.5006 64.0858 17.9238 64.0079 18.4989L61.0566 40.3295C60.9979 40.7602 61.2839 41.1486 61.6563 41.1486H65.4014C65.7493 41.1486 66.047 40.8524 66.1014 40.449L66.939 34.2609C67.0158 33.6846 67.4415 33.2613 67.9398 33.2613H70.2488C75.0567 33.2613 77.8298 30.5476 78.5554 25.17C78.883 22.8172 78.5682 20.9686 77.6239 19.6741C76.5878 18.2525 74.7494 17.5006 72.307 17.5006ZM73.1489 25.4737C72.7509 28.5285 70.7503 28.5285 68.8148 28.5285H67.7147L68.4883 22.8235C68.5341 22.4786 68.7881 22.2246 69.0879 22.2246H69.5926C70.9093 22.2246 72.1534 22.2246 72.7957 23.101C73.1788 23.6238 73.2951 24.4007 73.1489 25.4737Z" fill="#C5C5C5"/>
<path d="M94.1189 25.3762H90.6266C90.3268 25.3762 90.0718 25.6301 90.027 25.9749L89.8723 27.1152L89.6269 26.702C88.8704 25.421 87.1845 24.9928 85.5008 24.9928C81.6393 24.9928 78.3423 28.4048 77.6999 33.1912C77.367 35.5788 77.8397 37.8618 79.0006 39.454C80.0676 40.9179 81.5892 41.5278 83.402 41.5278C86.5134 41.5278 88.2387 39.1938 88.2387 39.1938L88.0829 40.3265C88.0242 40.7598 88.3102 41.1482 88.6847 41.1482H91.8313C92.3296 41.1482 92.7542 40.725 92.8321 40.1486L94.7218 26.1953C94.7794 25.7658 94.4934 25.3762 94.1189 25.3762ZM89.2481 33.3107C88.913 35.6398 87.3264 37.2033 85.3055 37.2033C84.2929 37.2033 83.4799 36.8236 82.9592 36.1041C82.4428 35.3896 82.2486 34.3726 82.4107 33.2397C82.7276 30.9305 84.3367 29.316 86.3266 29.316C87.3189 29.316 88.1256 29.7006 88.657 30.4264C89.1915 31.1597 89.4028 32.1828 89.2481 33.3107Z" fill="#C5C5C5"/>
<path d="M98.2386 18.1L95.2435 40.3302C95.1848 40.7609 95.4708 41.1493 95.8432 41.1493H98.8542C99.3546 41.1493 99.7793 40.726 99.8561 40.1497L102.81 18.3204C102.868 17.8897 102.582 17.5 102.21 17.5H98.8382C98.5405 17.5013 98.2844 17.7552 98.2386 18.1Z" fill="#C5C5C5"/>
</svg>
