<svg width="48" height="56" viewBox="0 0 48 56" fill="none" xmlns="http://www.w3.org/2000/svg">
<path d="M43.7999 4.66666H4.38568C4 4.66666 4 4.66666 4 5.10577C4 20.3759 4 35.6461 4 50.9161C4 51.3333 4 51.3333 4.35746 51.3333H23.9987H43.6776C43.9974 51.3333 43.9974 51.3333 43.9974 50.9491C43.9974 35.6571 43.9974 20.3539 43.9974 5.06185V4.90817C44.0162 4.7435 43.9315 4.66666 43.7999 4.66666ZM41.4482 7.98195C41.4482 21.331 41.4482 34.68 41.4482 48.029C41.4482 48.3693 41.4482 48.3693 41.166 48.3693H6.85024C6.56804 48.3693 6.56804 48.3693 6.56804 48.029C6.56804 34.68 6.56804 21.331 6.56804 7.98195C6.56804 7.58675 6.53982 7.64165 6.85024 7.64165H24.0269H41.166C41.4764 7.64165 41.4482 7.58675 41.4482 7.98195Z" fill="#C5C5C5"/>
<path d="M36.9039 25.9414C36.838 25.162 36.7345 24.3936 36.4523 23.68C36.0949 22.7799 35.4929 22.3078 34.6368 22.2419C33.9972 22.187 33.3575 22.22 32.7179 22.1981C32.0876 22.22 31.4574 22.187 30.8271 22.2419C29.9241 22.3078 29.3032 22.8237 28.9552 23.7788C28.673 24.5363 28.5789 25.3486 28.5225 26.161C28.4378 27.3905 28.4378 28.6311 28.5225 29.8715C28.5789 30.6399 28.673 31.4084 28.9176 32.1329C29.275 33.1977 29.9241 33.7576 30.9024 33.8016C32.1158 33.8674 33.3387 33.8674 34.5522 33.8016C35.5023 33.7576 36.1513 33.2308 36.5088 32.2098C36.8192 31.3315 36.9039 30.3984 36.9603 29.4653C37.0167 28.2687 37.0073 27.1051 36.9039 25.9414ZM34.4769 30.4753C34.4769 30.5082 34.4769 30.5411 34.4675 30.5851C34.3641 31.4962 34.1947 31.6719 33.414 31.6719C32.8119 31.6719 32.2099 31.7048 31.6079 31.639C31.3633 31.628 31.147 31.4304 31.0905 31.1449C30.9776 30.6948 30.9212 30.2337 30.9212 29.7726C30.9024 29.1799 30.9118 28.5871 30.9118 28.0053C30.9024 27.0393 30.8648 26.0622 31.0435 25.0962C31.147 24.5253 31.3163 24.3606 31.8148 24.3496C32.4075 24.3387 33.0001 24.3387 33.5927 24.3496C34.1477 24.3496 34.3264 24.5363 34.4299 25.1729C34.5146 25.7438 34.5616 26.3256 34.5616 26.8965C34.571 28.0931 34.6086 29.2787 34.4769 30.4753Z" fill="#C5C5C5"/>
<path d="M27.4338 23.5039C27.1234 22.7465 26.4744 22.2634 25.7594 22.2414C24.4707 22.1647 23.1726 22.1536 21.8839 22.2305C20.962 22.2745 20.3412 22.8342 19.9931 23.8113C19.7297 24.5358 19.6357 25.3153 19.5886 26.0947C19.504 27.3681 19.504 28.6415 19.5886 29.9149C19.6451 30.7602 19.7486 31.6056 20.0778 32.385C20.3976 33.1424 20.8962 33.6144 21.6299 33.7462C22.3542 33.8669 23.0691 33.8121 23.7652 33.834C24.4237 33.823 25.0445 33.845 25.6748 33.7901C26.5496 33.7242 27.1799 33.2522 27.5373 32.3081C27.8101 31.5946 27.923 30.8371 27.9888 30.0686C28.1111 28.5647 28.1017 27.0497 27.9512 25.5458C27.8477 24.8323 27.7255 24.1407 27.4338 23.5039ZM25.5431 30.4308C25.5431 30.4748 25.5431 30.5187 25.5337 30.5627C25.4114 31.5177 25.2703 31.6604 24.4425 31.6604C23.8499 31.6604 23.2573 31.6933 22.6646 31.6275C22.4201 31.6165 22.2225 31.4189 22.1661 31.1445C22.0626 30.7273 22.0062 30.3101 21.9968 29.882C21.9685 29.2672 21.9215 28.6415 21.9403 28.0157C21.9591 27.0278 21.9403 26.0288 22.119 25.0518C22.2131 24.5248 22.3918 24.3602 22.8528 24.3493C23.483 24.3382 24.1133 24.3382 24.7435 24.3493C25.195 24.3602 25.355 24.5139 25.4678 25.0298C25.5995 25.6336 25.6183 26.2593 25.6278 26.8851C25.6372 28.0597 25.656 29.2453 25.5431 30.4308Z" fill="#C5C5C5"/>
<path d="M17.2165 26.2368C16.4828 26.127 15.7397 26.2149 15.0059 26.193C14.4415 26.182 13.9242 26.3027 13.5009 26.7638C13.4538 26.8186 13.4068 26.8626 13.3409 26.8186C13.2751 26.7748 13.3127 26.6979 13.3127 26.6321C13.3598 25.9734 13.4068 25.3037 13.4444 24.6341C13.4538 24.4035 13.5197 24.3377 13.7266 24.3377C15.3258 24.3487 16.9155 24.3377 18.5146 24.3487C18.684 24.3487 18.731 24.2937 18.731 24.0962C18.7216 23.5473 18.7122 22.9874 18.731 22.4385C18.7404 22.2189 18.6651 22.186 18.4958 22.186H15.1282C13.9994 22.186 12.8706 22.186 11.7512 22.186C11.5819 22.186 11.516 22.2409 11.5066 22.4385C11.4032 24.3047 11.2997 26.171 11.1962 28.0372C11.1774 28.2128 11.2432 28.2568 11.3655 28.3007C11.8923 28.4764 12.4191 28.6519 12.9459 28.8386C13.0587 28.8825 13.181 28.8715 13.2845 28.7947C13.5291 28.6081 13.8019 28.4654 14.0841 28.3885C14.7802 28.2128 15.4951 28.2897 16.1912 28.3226C16.4452 28.3337 16.5957 28.5312 16.6427 28.8276C16.7744 29.596 16.7744 30.3864 16.6427 31.1549C16.5863 31.4952 16.4263 31.6598 16.1253 31.6709C15.3728 31.7038 14.6203 31.7038 13.8677 31.6709C13.5761 31.6598 13.435 31.5062 13.3598 31.1768C13.2939 30.8805 13.2563 30.5731 13.2657 30.2657C13.2751 30.112 13.2187 30.0682 13.0964 30.0682C12.4567 30.0791 11.8171 30.0901 11.1774 30.0901C11.0457 30.0901 11.0081 30.1449 11.0175 30.2877C11.0363 30.7707 11.0551 31.2537 11.1021 31.7367C11.2432 33.0321 11.8265 33.7237 12.8894 33.7896C14.291 33.8774 15.702 33.8774 17.1036 33.7896C17.9596 33.7348 18.5617 33.1639 18.8345 32.2197C18.9473 31.7587 19.0132 31.2757 19.0226 30.7927C19.0696 29.8925 19.0696 28.9813 18.9097 28.0921C18.7028 26.9724 18.176 26.3906 17.2165 26.2368Z" fill="#C5C5C5"/>
</svg>
