<svg width="120" height="56" viewBox="0 0 120 56" fill="none" xmlns="http://www.w3.org/2000/svg">
<path d="M8.83593 15.2961C6.51535 16.4238 3.96363 19.606 3.15823 23.6086C2.13639 28.6756 6.38468 30.8154 6.73179 30.1173C7.14021 29.2893 5.9681 29.0114 5.72875 26.3841C5.42079 22.9865 6.77755 19.1906 8.48962 17.525C8.80897 17.2205 8.79347 17.6502 8.79347 18.4422C8.79347 19.8707 8.72486 32.6507 8.72486 35.3189C8.72486 38.9307 8.59744 40.068 8.36219 41.191C8.13099 42.3331 7.75693 43.1032 8.03873 43.4029C8.35809 43.7339 9.71484 42.9457 10.5014 41.671C11.4424 40.1438 11.774 38.3086 11.8353 36.3167C11.9047 33.9179 11.9006 30.104 11.9047 27.9329C11.9047 25.9363 11.9316 20.0992 11.8777 16.585C11.8622 15.7257 9.80385 14.8255 8.83593 15.2961ZM115.825 34.2575C115.493 34.2575 115.336 34.6606 115.208 35.3369C114.769 37.6958 114.307 38.2279 113.709 38.2279C113.042 38.2279 112.444 37.0605 112.287 34.7233C112.167 32.8879 112.186 29.5037 112.34 26.1374C112.372 25.4479 112.209 24.764 110.613 24.0878C109.923 23.8013 108.925 23.3716 108.428 24.7679C107.021 28.7032 106.473 31.836 106.342 33.1032C106.339 33.1696 106.269 33.1792 106.257 33.0273C106.177 32.0105 105.991 30.162 105.968 26.2759C105.96 25.5247 105.826 24.875 105.101 24.3467C104.635 24.0071 103.216 23.3982 102.703 24.1191C102.263 24.7099 101.751 26.2949 101.215 28.1748C100.783 29.7057 100.483 30.7444 100.483 30.7444C100.483 30.7444 100.486 26.6165 100.494 25.0495C100.494 24.4586 100.147 24.2622 100.043 24.2262C99.5687 24.065 98.6319 23.8013 98.239 23.8013C97.7497 23.8013 97.6337 24.1191 97.6337 24.58C97.6337 24.6379 97.5529 30.0092 97.5529 33.7653V34.2936C97.2866 36.0218 96.4085 38.3674 95.4561 38.3674C94.5037 38.3674 94.0528 37.3867 94.0528 32.9106C94.0528 30.3004 94.1222 29.1641 94.1532 27.2747C94.1721 26.1868 94.2104 25.3502 94.2072 25.1577C94.199 24.58 93.3315 24.2841 92.9305 24.177C92.5261 24.065 92.1749 24.0289 91.898 24.0422C91.5125 24.0697 91.2389 24.3647 91.2389 24.7773V25.4034C90.7414 24.4908 89.9352 23.8545 89.3961 23.6713C87.9545 23.1743 86.4466 23.6173 85.3096 25.4611C84.4078 26.9304 83.8638 28.5902 83.6523 30.9768C83.4938 32.7229 83.5444 34.4909 83.8255 35.9857C83.4864 37.6731 82.8616 38.3674 82.1795 38.3674C81.1847 38.3674 80.4683 36.4866 80.5492 33.2322C80.6072 31.0934 80.9731 29.5938 81.3775 27.418C81.5514 26.4913 81.4085 26.0085 81.058 25.538C80.7379 25.1168 80.0518 24.8977 79.0691 25.1614C78.3708 25.354 77.3652 25.5598 76.4512 25.7172C76.4512 25.7172 76.5051 25.4611 76.5517 25.0097C76.7869 22.6413 74.5701 22.8338 73.8644 23.5907C73.4405 24.0422 73.1513 24.5753 73.0435 25.5333C72.8703 27.0556 73.9379 27.7717 73.9379 27.7717C73.5875 29.6337 72.7314 32.0684 71.8411 33.8279C71.3665 34.7726 71.0038 35.4669 70.5342 36.2096C70.5299 35.9364 70.5299 35.6585 70.5299 35.3863C70.5218 31.469 70.5642 28.3854 70.5838 27.2747C70.6034 26.1868 70.6419 25.372 70.6419 25.1795C70.6337 24.7583 70.4221 24.5932 69.9745 24.3961C69.5816 24.2177 69.1152 24.0878 68.6333 24.0422C68.028 23.9891 67.658 24.3647 67.6695 24.8077V25.4034C67.1687 24.4908 66.3625 23.8545 65.8308 23.6713C64.385 23.1743 62.878 23.6173 61.741 25.4611C60.8425 26.9304 60.2486 28.9849 60.0788 30.954C59.9252 32.7987 59.9521 34.3561 60.1678 35.6727C59.9366 36.9882 59.2775 38.3674 58.5301 38.3674C57.5776 38.3674 57.0336 37.3867 57.0336 32.9106C57.0336 30.3004 57.1031 29.1641 57.1382 27.2747C57.157 26.1868 57.1921 25.3502 57.188 25.1577C57.1839 24.58 56.3173 24.2841 55.9122 24.177C55.4923 24.0611 55.1256 24.0252 54.8478 24.0422C54.4778 24.0783 54.2197 24.4586 54.2197 24.7498V25.4034C53.719 24.4908 52.9128 23.8545 52.377 23.6713C50.9353 23.1743 49.4397 23.6268 48.2945 25.4611C47.5472 26.6573 46.9419 27.9861 46.6299 30.9321C46.5449 31.7829 46.5025 32.5787 46.5065 33.3223C46.2092 35.4346 44.895 37.8704 43.8233 37.8704C43.1911 37.8704 42.5899 36.4552 42.5899 33.4342C42.5899 29.4146 42.8055 23.6846 42.8439 23.1298C42.8439 23.1298 44.2006 23.1022 44.4669 23.0985C45.1416 23.0937 45.7583 23.1118 46.6568 23.0577C47.1118 23.0312 47.5472 21.1464 47.0767 20.9094C46.8684 20.8059 45.3728 20.712 44.7789 20.6988C44.2783 20.6855 42.8938 20.5651 42.8938 20.5651C42.8938 20.5651 43.0179 16.7644 43.0449 16.366C43.0677 16.0255 42.6977 15.8557 42.4821 15.7523C41.9609 15.4933 41.4945 15.372 40.9473 15.242C40.1803 15.059 39.8372 15.2383 39.7719 15.9847C39.6714 17.1182 39.6175 20.4399 39.6175 20.4399C39.0547 20.4399 37.1467 20.309 36.5871 20.309C36.0676 20.309 35.504 22.9059 36.2253 22.9371C37.0543 22.9733 38.4919 23.0094 39.4476 23.0396C39.4476 23.0396 39.4051 28.8644 39.4051 30.659V31.2138C38.8775 34.396 37.0306 36.1157 37.0306 36.1157C37.4276 34.0072 36.6181 32.4269 35.1536 31.0934C34.6137 30.5963 33.5502 29.6602 32.3585 28.6444C32.3585 28.6444 33.0486 27.8523 33.6613 26.2674C34.0934 25.1434 34.113 23.8506 33.0486 23.568C31.2909 23.0985 29.8451 24.598 29.4097 26.2001C29.0781 27.4359 29.2521 28.3578 29.9105 29.3111L30.0607 29.5265C29.6679 30.4123 29.1206 31.6075 28.6615 32.5341C27.3783 35.1084 26.4104 37.141 25.6818 37.141C25.0961 37.141 25.1035 35.0771 25.1035 33.143C25.1035 31.4775 25.2113 28.9668 25.2963 26.3708C25.3232 25.5152 24.9532 25.0229 24.3332 24.58C23.955 24.3116 23.1529 23.7833 22.6865 23.7833C21.9931 23.7833 19.9804 23.8904 18.0805 30.2692C17.8411 31.0753 17.3707 32.5389 17.3707 32.5389L17.4132 24.8665C17.4132 24.6871 17.3323 24.5174 17.1436 24.3961C16.8234 24.1949 15.9641 23.7833 15.2086 23.7833C14.8418 23.7833 14.6605 23.9806 14.6605 24.3695L14.5992 36.3661C14.5992 37.2796 14.618 38.3446 14.6956 38.8103C14.7724 39.2761 14.8998 39.6564 15.0542 39.884C15.2086 40.1041 15.3891 40.2739 15.6823 40.3498C15.956 40.4171 17.463 40.6362 17.5406 39.9694C17.637 39.1679 17.6402 38.3048 18.4309 35.0686C19.6643 30.0367 21.2685 27.5839 22.0241 26.7104C22.1588 26.5586 22.3092 26.5491 22.301 26.8004C22.2667 27.9054 22.1548 30.659 22.078 32.9999C21.8738 39.2714 22.8523 40.4304 24.2597 40.4304C25.3314 40.4304 26.8425 39.1907 28.4655 36.0578C29.4792 34.1011 30.4585 32.1899 31.1676 30.8069C31.6535 31.3342 32.2081 31.9033 32.7595 32.5123C34.0435 33.9218 34.4634 35.2648 34.1824 36.5369C33.97 37.5118 33.1647 38.5145 31.7344 37.5394C31.3178 37.2567 31.1406 37.0376 30.7207 36.7151C30.4969 36.5406 30.1498 36.4914 29.9456 36.6706C29.4057 37.141 29.101 37.7357 28.9237 38.4746C28.7579 39.1955 29.3787 39.571 30.0223 39.9021C30.5737 40.1933 31.7614 40.4483 32.5202 40.4797C35.477 40.5964 37.8442 38.8236 39.4901 34.2575C39.7874 38.2015 41.0396 40.4352 43.218 40.4352C44.6785 40.4352 46.1398 38.246 46.7802 36.0929C46.9607 36.9703 47.2343 37.7309 47.5856 38.3807C49.2666 41.4691 52.5273 40.807 54.1617 38.1834C54.6706 37.3687 54.7482 37.0775 54.7482 37.0775C54.9867 39.554 56.7061 40.4256 57.6896 40.4256C58.7955 40.4256 59.9293 39.8176 60.7265 37.7309C60.8229 37.9596 60.9234 38.1749 61.0393 38.3807C62.7162 41.4691 65.977 40.807 67.6155 38.1834C67.6891 38.0535 67.7585 37.9463 67.8156 37.8429L67.8663 39.4724C67.8663 39.4724 66.9294 40.4664 66.3552 41.0792C63.8304 43.7701 61.9101 45.8113 61.768 48.1835C61.5907 51.2139 63.703 52.3378 65.3064 52.4848C67.0029 52.6423 68.4602 51.5544 69.3537 50.0235C70.1403 48.6805 70.6573 45.7932 70.619 42.9373C70.6035 41.7915 70.5798 40.3412 70.5569 38.7791C71.4473 37.5887 72.4495 36.0749 73.3676 34.3032C74.3731 32.3777 75.4447 29.7854 75.992 27.767C75.992 27.767 76.9289 27.7765 77.9238 27.7044C78.2439 27.6816 78.3363 27.7585 78.2742 28.0268C78.2047 28.3532 77.0179 33.6761 78.101 37.2216C78.8452 39.647 80.5139 40.4304 81.5088 40.4304C82.6687 40.4304 83.7795 39.4098 84.3725 37.897C84.446 38.063 84.5195 38.2279 84.6045 38.3807C86.2814 41.4691 89.5307 40.8022 91.1807 38.1834C91.5548 37.5887 91.7631 37.0775 91.7631 37.0775C92.1176 39.6431 93.837 40.4352 94.8196 40.4352C95.8488 40.4352 96.82 39.9476 97.6107 37.7803C97.6418 38.7345 97.6916 39.5133 97.7765 39.7588C97.8263 39.9116 98.1195 40.0994 98.3278 40.1933C99.268 40.5964 100.224 40.4039 100.575 40.3185C100.822 40.2606 101.014 40.0367 101.038 39.4458C101.107 37.897 101.064 35.2962 101.469 33.3584C102.151 30.1174 102.784 28.8597 103.084 28.2374C103.251 27.8874 103.443 27.8296 103.447 28.1967C103.458 28.9441 103.493 31.1379 103.759 34.0926C103.948 36.2588 104.206 37.5431 104.407 37.9511C104.969 39.1101 105.671 39.1642 106.238 39.1642C106.601 39.1642 107.356 39.0475 107.29 38.3086C107.256 37.9511 107.314 35.7259 107.98 32.5304C108.42 30.4399 109.148 28.5552 109.41 27.8656C109.511 27.6105 109.553 27.8077 109.553 27.8476C109.495 29.2846 109.372 33.9891 109.873 36.5586C110.56 40.0463 112.536 40.4352 113.227 40.4352C114.695 40.4352 115.902 39.1367 116.307 35.7173C116.407 34.893 116.26 34.2575 115.825 34.2575ZM54.1887 32.1452C54.1078 33.953 53.8031 35.4669 53.3179 36.5633C52.4308 38.5552 50.6853 39.182 49.9175 36.3129C49.3588 34.2404 49.5475 31.411 49.7828 29.8839C50.1217 27.619 50.9818 26.0169 52.323 26.1639C53.6953 26.3214 54.3659 28.3759 54.1887 32.1452ZM67.6385 32.1718C67.5617 33.8771 67.1803 35.5958 66.7637 36.5633C65.9044 38.5685 64.1074 39.1953 63.3633 36.3129C62.8552 34.3382 62.9745 31.7914 63.2285 30.1884C63.5569 28.1027 64.3467 26.1639 65.7696 26.1639C67.1533 26.1639 67.8354 27.9281 67.6385 32.1718ZM67.9897 43.8278C67.9701 46.9484 67.5503 49.6791 66.6477 50.4758C65.3604 51.6037 63.6296 50.7529 63.9881 48.4793C64.3043 46.4647 65.8039 44.4102 67.9938 41.8986C67.9938 41.8986 68.0012 42.4715 67.9895 43.8278H67.9897ZM91.2119 32.1897C91.1342 34.0659 90.7757 35.5294 90.3329 36.5633C89.4728 38.5685 87.6921 39.1906 86.9325 36.3129C86.52 34.7412 86.5004 32.1176 86.7977 29.9296C87.0983 27.6996 87.9429 26.0169 89.3381 26.1639C90.7177 26.3166 91.3621 28.3759 91.2119 32.1897Z" fill="#C5C5C5"/>
</svg>
