<svg width="144" height="56" viewBox="0 0 144 56" fill="none" xmlns="http://www.w3.org/2000/svg">
<path d="M27.5148 16.774C26.9089 16.3809 25.172 16.624 23.0859 17.3784C19.435 20.2944 16.3536 24.5903 16.1386 31.4888C16.0995 31.6538 15.7394 31.4663 15.6681 31.4153C14.6822 29.2074 14.2916 26.8825 15.1148 23.5285C15.2683 23.23 14.7666 22.8626 14.6764 22.9675C14.4958 23.179 13.7425 24.1165 13.2422 25.1305C10.7624 30.1569 12.3841 36.5973 16.7227 39.4158C21.0604 42.2388 26.538 40.4179 28.9533 35.348C31.7475 29.4965 29.153 17.8429 27.5149 16.7741L27.5148 16.774Z" fill="#C5C5C5"/>
<path d="M43.0415 19.5822C37.8983 19.5822 34.165 24.0498 34.165 30.2054C34.165 36.4114 37.8886 40.7458 43.2207 40.7458C45.914 40.7458 48.0463 39.7618 49.7421 37.7361C50.2486 37.0971 50.3031 36.4813 50.3031 36.2459C50.3031 35.2424 49.6644 34.5135 48.7845 34.5135C48.3409 34.5135 47.9699 34.7093 47.5444 35.1689C46.5842 36.2144 45.3196 37.2824 43.2207 37.2824C40.3021 37.2824 37.9285 34.722 37.779 31.4341H49.3952C50.6584 31.4341 51.272 30.744 51.272 29.3251C51.272 28.9073 51.272 28.6059 51.2001 28.0111C50.5743 22.7334 47.5247 19.5829 43.0418 19.5829L43.0415 19.5822ZM43.0415 22.8775C45.8304 22.8775 47.62 24.9542 47.7304 28.306H37.7826C38.0437 25.204 40.2884 22.8775 43.0414 22.8775H43.0415Z" fill="#C5C5C5"/>
<path d="M62.3642 19.5822C60.0278 19.5822 57.7145 21.1518 56.8107 23.3319V21.9847C56.8107 19.8974 55.4263 19.7917 55.149 19.7917C54.3286 19.7917 53.4519 20.3677 53.4519 21.9847V38.2582C53.4519 40.4256 54.9256 40.5351 55.2209 40.5351C55.5162 40.5351 56.9905 40.4256 56.9905 38.2582V29.5344C56.9905 25.7387 58.8314 23.0875 61.467 23.0875C64.0197 23.0875 65.261 25.045 65.261 29.0724V38.2582C65.261 40.4256 66.7354 40.5351 67.0307 40.5351C67.326 40.5351 68.7997 40.4256 68.7997 38.2582V27.7739C68.7997 23.814 67.109 19.5833 62.3642 19.5833V19.5822Z" fill="#C5C5C5"/>
<path d="M84.8108 19.7923C83.993 19.7923 83.4 20.3496 83.0469 21.446L78.2056 35.6707L73.4012 21.446C73.0251 20.3331 72.4365 19.7923 71.6014 19.7923C70.6258 19.7923 69.8318 20.6817 69.8318 21.7754C69.8318 22.046 69.8581 22.397 70.0539 22.9452L75.6176 38.295C76.2807 40.1467 77.3711 40.5354 78.1696 40.5354C78.9675 40.5354 80.0586 40.1467 80.723 38.2959L86.3229 22.8608C86.5142 22.3194 86.5438 21.9218 86.5438 21.7336C86.5438 20.6274 85.7979 19.7926 84.8108 19.7926V19.7923Z" fill="#C5C5C5"/>
<path d="M95.0966 19.5826C92.8334 19.5826 90.7255 20.3191 89.1619 21.6549C88.6317 22.0822 88.3737 22.6155 88.3737 23.2861C88.3737 24.2093 88.977 24.933 89.7486 24.933C90.0823 24.933 90.4559 24.7777 90.7986 24.4972C92.1428 23.4502 93.406 22.962 94.7731 22.962C97.3894 22.962 98.8913 24.5167 98.8913 27.2279V27.6772C93.0182 27.6847 87.0447 28.5135 87.0447 34.4833C87.0447 38.7799 90.1872 40.7036 93.3015 40.7036C95.7818 40.7036 97.7626 39.5554 99.0335 37.3812V38.4266C99.0335 39.9837 99.9283 40.5357 100.696 40.5357C100.858 40.5357 102.285 40.4765 102.285 38.4266V27.4789C102.285 22.5335 99.5972 19.5816 95.0963 19.5816L95.0966 19.5826ZM98.1469 30.7213H98.8914V31.6737C98.8914 35.1574 96.9928 37.4081 94.0556 37.4081C93.2584 37.4081 90.6563 37.1914 90.6563 34.3992C90.6562 31.1023 94.9311 30.7213 98.1469 30.7213Z" fill="#C5C5C5"/>
<path d="M111.502 23.5488C113.05 23.5488 113.128 22.1411 113.128 21.8591C113.128 21.0221 112.701 20.1273 111.502 20.1273H108.318V16.3647C108.318 14.684 107.385 14.0877 106.585 14.0877C106.29 14.0877 104.816 14.1973 104.816 16.3647V34.2321C104.816 38.3556 106.557 40.535 109.851 40.535C110.703 40.535 111.534 40.3586 112.077 40.0632C112.7 39.7003 113.056 39.1033 113.056 38.426C113.056 37.4705 112.463 36.7777 111.646 36.7777C111.488 36.7777 111.263 36.8234 111.015 36.9066C110.712 36.9951 110.507 37.0295 110.282 37.0295C108.942 37.0295 108.318 36.0074 108.318 33.8122V23.5471H111.502V23.5488Z" fill="#C5C5C5"/>
<path d="M123.202 19.5822C117.85 19.5822 113.967 24.0146 113.967 30.1209C113.967 33.0939 114.908 35.8035 116.615 37.7503C118.31 39.6816 120.649 40.7451 123.202 40.7451C128.487 40.7451 132.473 36.1778 132.473 30.121C132.473 24.0147 128.573 19.5823 123.202 19.5823V19.5822ZM123.202 37.2393C119.532 37.2393 117.612 33.6581 117.612 30.1204C117.612 25.259 120.51 23.0452 123.202 23.0452C125.894 23.0452 128.791 25.259 128.791 30.1204C128.791 35.0119 125.894 37.2393 123.202 37.2393Z" fill="#C5C5C5"/>
</svg>
